<svg width="41" height="41" viewBox="0 0 41 41" fill="none" xmlns="http://www.w3.org/2000/svg">
<g id="StarklyAI logo">
<g id="WappGPT - logo">
<path id="Vector" fill-rule="evenodd" clip-rule="evenodd" d="M29.0752 21.5085C26.8478 22.4103 24.4435 22.9665 21.9289 23.1106C21.4952 23.1355 21.0582 23.1481 20.6183 23.1481C20.1784 23.1481 19.7415 23.1355 19.3078 23.1106C16.7925 22.9665 14.3877 22.41 12.1599 21.5078C7.48473 19.6145 3.58902 16.1984 1.08789 11.8747C4.98634 5.13543 12.2728 0.601288 20.6183 0.601288C28.9638 0.601288 36.2503 5.13543 40.1488 11.8747C37.6474 16.1989 33.7511 19.6152 29.0752 21.5085Z" fill="white"/>
<path id="Vector_2" d="M12.1597 23.2628C11.6211 23.0447 11.0928 22.8064 10.5759 22.5488C8.89578 23.7323 7.47548 25.2064 6.40601 26.8881C8.22383 29.7467 11.0552 32.0051 14.4532 33.2569C16.0724 33.8534 17.8202 34.2212 19.6483 34.3166H21.5533C23.3809 34.2213 26.5933 36.0319 21.9286 40.6012C25.3271 39.3496 32.9775 29.747 34.7955 26.8881C33.7291 25.2112 32.3138 23.7407 30.64 22.5589C30.129 22.8129 29.607 23.048 29.0749 23.2635C26.8476 24.1653 24.4433 24.7215 21.9286 24.8657C21.495 24.8905 21.058 24.9031 20.6181 24.9031C20.1782 24.9031 19.7412 24.8905 19.3076 24.8657C16.7923 24.7215 14.3875 24.1651 12.1597 23.2628Z" fill="white"/>
<rect id="Rectangle 17" x="11.2007" y="8.99084" width="18.8764" height="6.74157" rx="3.37078" fill="#162550"/>
<ellipse id="Ellipse 18" cx="25.8444" cy="12.3242" rx="1.23596" ry="1.23595" fill="#04FED1"/>
<circle id="Ellipse 19" cx="20.6007" cy="28.9533" r="1.23596" fill="#162550"/>
<ellipse id="Ellipse 20" cx="15.6576" cy="12.3242" rx="1.23596" ry="1.23595" fill="#04FED1"/>
<ellipse id="Ellipse 21" cx="15.6576" cy="28.9533" rx="1.23596" ry="1.23596" fill="#162550"/>
<circle id="Ellipse 22" cx="25.545" cy="28.9533" r="1.23596" fill="#162550"/>
</g>
</g>
</svg>
